<?xml version="1.0" encoding="UTF-8" standalone="no"?>
<!DOCTYPE svg PUBLIC "-//W3C//DTD SVG 1.1//EN" "http://www.w3.org/Graphics/SVG/1.1/DTD/svg11.dtd">
<svg width="100%" height="100%" viewBox="0 0 1369 884" version="1.1" xmlns="http://www.w3.org/2000/svg" xmlns:xlink="http://www.w3.org/1999/xlink" xml:space="preserve" xmlns:serif="http://www.serif.com/" style="fill-rule:evenodd;clip-rule:evenodd;stroke-linecap:round;stroke-linejoin:round;stroke-miterlimit:1.5;">
    <g transform="matrix(1,0,0,1,-1289.39,-660.404)">
        <g transform="matrix(1,0,0,1,-8194.44,0)">
            <g transform="matrix(1,0,0,1,8208.33,-5028.89)">
                <path d="M1296.56,6334.3L1432.32,6004.13L1623.2,6380.39L1793.37,6140.42L1984.96,6452.78L2096.97,5865.43L2242.41,6300.33L2464.8,6047.41L2623.42,6388.09" style="fill:none;stroke:rgb(211,211,211);stroke-width:28.95px;"/>
            </g>
            <g transform="matrix(1.75815,0,0,1.75815,7015.76,-360.964)">
                <circle cx="1802.15" cy="1005.74" r="21.844" style="fill:rgb(59,59,59);"/>
            </g>
            <g transform="matrix(3.13144,0,0,3.13144,4003.06,-2161.58)">
                <circle cx="1802.15" cy="1005.74" r="21.844" style="fill:rgb(59,59,59);"/>
            </g>
            <g transform="matrix(3.13144,0,0,3.13144,4003.06,-2161.58)">
                <circle cx="1802.15" cy="1005.74" r="21.844" style="fill:rgb(59,59,59);"/>
            </g>
            <g transform="matrix(2.85923,0,0,2.85923,5513.93,-1854.51)">
                <circle cx="1802.15" cy="1005.74" r="21.844" style="fill:rgb(59,59,59);"/>
            </g>
            <g transform="matrix(2.72637,0,0,2.72637,5087.69,-1626.23)">
                <circle cx="1802.15" cy="1005.74" r="21.844" style="fill:rgb(59,59,59);"/>
            </g>
            <g transform="matrix(2.07892,0,0,2.07892,6081.78,-745.698)">
                <circle cx="1802.15" cy="1005.74" r="21.844" style="fill:rgb(59,59,59);"/>
            </g>
            <g transform="matrix(2.30503,0,0,2.30503,6301.71,-1047.93)">
                <circle cx="1802.15" cy="1005.74" r="21.844" style="fill:rgb(59,59,59);"/>
            </g>
            <g transform="matrix(3.69699,0,0,3.69699,3646.32,-2860.31)">
                <circle cx="1802.15" cy="1005.74" r="21.844" style="fill:rgb(59,59,59);"/>
            </g>
        </g>
        <g transform="matrix(1,0,0,1,-8194.44,0)">
            <g transform="matrix(1,0,0,1,8165.7,340.801)">
                <path d="M2672.96,443.57C2672.96,414.314 2661.33,386.256 2640.65,365.568C2619.96,344.881 2591.9,333.259 2562.64,333.259L1442.1,333.259C1412.85,333.259 1384.79,344.881 1364.1,365.568C1343.41,386.256 1331.79,414.314 1331.79,443.57L1331.79,1079.02C1331.79,1108.28 1343.41,1136.34 1364.1,1157.02C1384.79,1177.71 1412.85,1189.33 1442.1,1189.33L2562.64,1189.33C2591.9,1189.33 2619.96,1177.71 2640.65,1157.02C2661.33,1136.34 2672.96,1108.28 2672.96,1079.02L2672.96,443.57Z" style="fill:none;stroke:black;stroke-width:27.31px;"/>
            </g>
        </g>
    </g>
</svg>
